<mxfile host="65bd71144e">
    <diagram id="BwZO2CC_GluqM2z65O8M" name="Page-1">
        <mxGraphModel dx="2398" dy="940" grid="1" gridSize="10" guides="1" tooltips="1" connect="1" arrows="1" fold="1" page="1" pageScale="1" pageWidth="850" pageHeight="1100" math="0" shadow="0">
            <root>
                <mxCell id="0"/>
                <mxCell id="1" parent="0"/>
                <mxCell id="4" value="E-market" style="shape=umlLifeline;perimeter=lifelinePerimeter;whiteSpace=wrap;html=1;container=1;collapsible=0;recursiveResize=0;outlineConnect=0;" parent="1" vertex="1">
                    <mxGeometry x="334" y="50" width="100" height="1410" as="geometry"/>
                </mxCell>
                <mxCell id="30" value="" style="html=1;points=[];perimeter=orthogonalPerimeter;" parent="4" vertex="1">
                    <mxGeometry x="45" y="100" width="10" height="50" as="geometry"/>
                </mxCell>
                <mxCell id="33" value="" style="html=1;points=[];perimeter=orthogonalPerimeter;" parent="4" vertex="1">
                    <mxGeometry x="45" y="180" width="10" height="50" as="geometry"/>
                </mxCell>
                <mxCell id="34" value="" style="endArrow=none;html=1;endFill=0;startArrow=block;startFill=1;entryX=0.952;entryY=0.786;entryDx=0;entryDy=0;entryPerimeter=0;exitX=1.105;exitY=0.031;exitDx=0;exitDy=0;exitPerimeter=0;" parent="4" source="33" target="30" edge="1">
                    <mxGeometry width="50" height="50" relative="1" as="geometry">
                        <mxPoint x="126" y="180" as="sourcePoint"/>
                        <mxPoint x="345.5000000000002" y="124" as="targetPoint"/>
                        <Array as="points">
                            <mxPoint x="96" y="180"/>
                            <mxPoint x="96" y="140"/>
                        </Array>
                    </mxGeometry>
                </mxCell>
                <mxCell id="35" value="Verify()" style="edgeLabel;html=1;align=center;verticalAlign=middle;resizable=0;points=[];" parent="34" vertex="1" connectable="0">
                    <mxGeometry x="0.2432" y="-3" relative="1" as="geometry">
                        <mxPoint x="17" y="19" as="offset"/>
                    </mxGeometry>
                </mxCell>
                <mxCell id="49" value="" style="html=1;points=[];perimeter=orthogonalPerimeter;" parent="4" vertex="1">
                    <mxGeometry x="45" y="410" width="10" height="50" as="geometry"/>
                </mxCell>
                <mxCell id="7" value="" style="endArrow=block;html=1;endFill=1;" parent="1" edge="1">
                    <mxGeometry width="50" height="50" relative="1" as="geometry">
                        <mxPoint x="185.00034482758616" y="903" as="sourcePoint"/>
                        <mxPoint x="385" y="903" as="targetPoint"/>
                    </mxGeometry>
                </mxCell>
                <mxCell id="8" value="Buy Product()" style="edgeLabel;html=1;align=center;verticalAlign=middle;resizable=0;points=[];" parent="7" vertex="1" connectable="0">
                    <mxGeometry x="0.2432" y="-3" relative="1" as="geometry">
                        <mxPoint x="-23" y="-16" as="offset"/>
                    </mxGeometry>
                </mxCell>
                <mxCell id="36" value="alt" style="shape=umlFrame;whiteSpace=wrap;html=1;width=40;height=30;boundedLbl=1;verticalAlign=middle;align=left;spacingLeft=5;" parent="1" vertex="1">
                    <mxGeometry x="240" y="130" width="490" height="280" as="geometry"/>
                </mxCell>
                <mxCell id="17" value="Customer" style="shape=umlLifeline;perimeter=lifelinePerimeter;whiteSpace=wrap;html=1;container=1;collapsible=0;recursiveResize=0;outlineConnect=0;" parent="1" vertex="1">
                    <mxGeometry x="620" y="50" width="100" height="1400" as="geometry"/>
                </mxCell>
                <mxCell id="21" value="" style="endArrow=none;html=1;endFill=0;startArrow=block;startFill=1;" parent="1" source="30" edge="1">
                    <mxGeometry width="50" height="50" relative="1" as="geometry">
                        <mxPoint x="383.8103448275863" y="164" as="sourcePoint"/>
                        <mxPoint x="669.5000000000002" y="164" as="targetPoint"/>
                    </mxGeometry>
                </mxCell>
                <mxCell id="22" value="[Enter authentical]" style="edgeLabel;html=1;align=center;verticalAlign=middle;resizable=0;points=[];" parent="21" vertex="1" connectable="0">
                    <mxGeometry x="0.2432" y="-3" relative="1" as="geometry">
                        <mxPoint x="-23" y="-16" as="offset"/>
                    </mxGeometry>
                </mxCell>
                <mxCell id="37" value="" style="endArrow=none;html=1;endFill=0;dashed=1;strokeWidth=1;dashPattern=12 12;" parent="1" edge="1">
                    <mxGeometry width="50" height="50" relative="1" as="geometry">
                        <mxPoint x="240.00034482758616" y="329.5799999999999" as="sourcePoint"/>
                        <mxPoint x="730" y="330" as="targetPoint"/>
                    </mxGeometry>
                </mxCell>
                <mxCell id="39" value="" style="endArrow=block;html=1;endFill=1;startArrow=none;startFill=0;dashed=1;entryX=0.878;entryY=0.607;entryDx=0;entryDy=0;entryPerimeter=0;" parent="1" target="36" edge="1">
                    <mxGeometry width="50" height="50" relative="1" as="geometry">
                        <mxPoint x="390" y="300" as="sourcePoint"/>
                        <mxPoint x="644" y="300.0000000000001" as="targetPoint"/>
                    </mxGeometry>
                </mxCell>
                <mxCell id="40" value="Register Sucessful" style="edgeLabel;html=1;align=center;verticalAlign=middle;resizable=0;points=[];" parent="39" vertex="1" connectable="0">
                    <mxGeometry x="0.2432" y="-3" relative="1" as="geometry">
                        <mxPoint x="-23" y="-16" as="offset"/>
                    </mxGeometry>
                </mxCell>
                <mxCell id="41" value="" style="endArrow=block;html=1;endFill=1;startArrow=none;startFill=0;dashed=1;entryX=0.878;entryY=0.607;entryDx=0;entryDy=0;entryPerimeter=0;exitX=0.306;exitY=0.893;exitDx=0;exitDy=0;exitPerimeter=0;" parent="1" source="36" edge="1">
                    <mxGeometry width="50" height="50" relative="1" as="geometry">
                        <mxPoint x="390" y="380.04" as="sourcePoint"/>
                        <mxPoint x="670.22" y="380.00000000000006" as="targetPoint"/>
                    </mxGeometry>
                </mxCell>
                <mxCell id="42" value="Register&amp;nbsp; Fail" style="edgeLabel;html=1;align=center;verticalAlign=middle;resizable=0;points=[];" parent="41" vertex="1" connectable="0">
                    <mxGeometry x="0.2432" y="-3" relative="1" as="geometry">
                        <mxPoint x="-23" y="-16" as="offset"/>
                    </mxGeometry>
                </mxCell>
                <mxCell id="43" value="" style="endArrow=block;html=1;endFill=1;startArrow=none;startFill=0;dashed=1;entryX=0.878;entryY=0.607;entryDx=0;entryDy=0;entryPerimeter=0;" parent="1" edge="1">
                    <mxGeometry width="50" height="50" relative="1" as="geometry">
                        <mxPoint x="390" y="510.03999999999996" as="sourcePoint"/>
                        <mxPoint x="670.22" y="510" as="targetPoint"/>
                    </mxGeometry>
                </mxCell>
                <mxCell id="44" value="Register Sucessful" style="edgeLabel;html=1;align=center;verticalAlign=middle;resizable=0;points=[];" parent="43" vertex="1" connectable="0">
                    <mxGeometry x="0.2432" y="-3" relative="1" as="geometry">
                        <mxPoint x="-23" y="-16" as="offset"/>
                    </mxGeometry>
                </mxCell>
                <mxCell id="45" value="" style="endArrow=none;html=1;endFill=0;startArrow=block;startFill=1;" parent="1" source="4" edge="1">
                    <mxGeometry width="50" height="50" relative="1" as="geometry">
                        <mxPoint x="390" y="460" as="sourcePoint"/>
                        <mxPoint x="670.5000000000002" y="460" as="targetPoint"/>
                    </mxGeometry>
                </mxCell>
                <mxCell id="46" value="Register Product()" style="edgeLabel;html=1;align=center;verticalAlign=middle;resizable=0;points=[];" parent="45" vertex="1" connectable="0">
                    <mxGeometry x="0.2432" y="-3" relative="1" as="geometry">
                        <mxPoint x="-23" y="-16" as="offset"/>
                    </mxGeometry>
                </mxCell>
                <mxCell id="56" value="Customer" style="shape=umlLifeline;perimeter=lifelinePerimeter;whiteSpace=wrap;html=1;container=1;collapsible=0;recursiveResize=0;outlineConnect=0;" parent="1" vertex="1">
                    <mxGeometry x="135" y="50" width="100" height="1410" as="geometry"/>
                </mxCell>
                <mxCell id="58" value="" style="html=1;points=[];perimeter=orthogonalPerimeter;" parent="1" vertex="1">
                    <mxGeometry x="380" y="903" width="10" height="50" as="geometry"/>
                </mxCell>
                <mxCell id="59" value="" style="html=1;points=[];perimeter=orthogonalPerimeter;" parent="1" vertex="1">
                    <mxGeometry x="380" y="983" width="10" height="50" as="geometry"/>
                </mxCell>
                <mxCell id="60" value="" style="endArrow=none;html=1;endFill=0;startArrow=block;startFill=1;entryX=0.952;entryY=0.786;entryDx=0;entryDy=0;entryPerimeter=0;exitX=1.105;exitY=0.031;exitDx=0;exitDy=0;exitPerimeter=0;" parent="1" source="59" target="58" edge="1">
                    <mxGeometry width="50" height="50" relative="1" as="geometry">
                        <mxPoint x="127" y="933" as="sourcePoint"/>
                        <mxPoint x="346.5000000000002" y="877" as="targetPoint"/>
                        <Array as="points">
                            <mxPoint x="431" y="983"/>
                            <mxPoint x="431" y="943"/>
                        </Array>
                    </mxGeometry>
                </mxCell>
                <mxCell id="61" value="Verify()" style="edgeLabel;html=1;align=center;verticalAlign=middle;resizable=0;points=[];" parent="60" vertex="1" connectable="0">
                    <mxGeometry x="0.2432" y="-3" relative="1" as="geometry">
                        <mxPoint x="17" y="19" as="offset"/>
                    </mxGeometry>
                </mxCell>
                <mxCell id="62" value="alt" style="shape=umlFrame;whiteSpace=wrap;html=1;width=40;height=30;boundedLbl=1;verticalAlign=middle;align=left;spacingLeft=5;" parent="1" vertex="1">
                    <mxGeometry x="130" y="540" width="400" height="280" as="geometry"/>
                </mxCell>
                <mxCell id="63" value="" style="endArrow=none;html=1;endFill=0;startArrow=block;startFill=1;" parent="1" edge="1">
                    <mxGeometry width="50" height="50" relative="1" as="geometry">
                        <mxPoint x="185" y="1033" as="sourcePoint"/>
                        <mxPoint x="389.99999999999983" y="1033" as="targetPoint"/>
                    </mxGeometry>
                </mxCell>
                <mxCell id="64" value="Add to cart()" style="edgeLabel;html=1;align=center;verticalAlign=middle;resizable=0;points=[];" parent="63" vertex="1" connectable="0">
                    <mxGeometry x="0.2432" y="-3" relative="1" as="geometry">
                        <mxPoint x="-23" y="-16" as="offset"/>
                    </mxGeometry>
                </mxCell>
                <mxCell id="65" value="" style="endArrow=block;html=1;endFill=1;" parent="1" edge="1">
                    <mxGeometry width="50" height="50" relative="1" as="geometry">
                        <mxPoint x="184.0003448275861" y="580" as="sourcePoint"/>
                        <mxPoint x="384" y="580" as="targetPoint"/>
                    </mxGeometry>
                </mxCell>
                <mxCell id="66" value="[Enter authentical]" style="edgeLabel;html=1;align=center;verticalAlign=middle;resizable=0;points=[];" parent="65" vertex="1" connectable="0">
                    <mxGeometry x="0.2432" y="-3" relative="1" as="geometry">
                        <mxPoint x="-23" y="17" as="offset"/>
                    </mxGeometry>
                </mxCell>
                <mxCell id="67" value="" style="html=1;points=[];perimeter=orthogonalPerimeter;" parent="1" vertex="1">
                    <mxGeometry x="379" y="580" width="10" height="50" as="geometry"/>
                </mxCell>
                <mxCell id="68" value="" style="html=1;points=[];perimeter=orthogonalPerimeter;" parent="1" vertex="1">
                    <mxGeometry x="379" y="660" width="10" height="30" as="geometry"/>
                </mxCell>
                <mxCell id="69" value="" style="endArrow=none;html=1;endFill=0;startArrow=block;startFill=1;entryX=0.952;entryY=0.786;entryDx=0;entryDy=0;entryPerimeter=0;exitX=1.105;exitY=0.031;exitDx=0;exitDy=0;exitPerimeter=0;" parent="1" source="68" target="67" edge="1">
                    <mxGeometry width="50" height="50" relative="1" as="geometry">
                        <mxPoint x="126" y="610" as="sourcePoint"/>
                        <mxPoint x="345.5000000000002" y="554" as="targetPoint"/>
                        <Array as="points">
                            <mxPoint x="430" y="660"/>
                            <mxPoint x="430" y="620"/>
                        </Array>
                    </mxGeometry>
                </mxCell>
                <mxCell id="70" value="Verify()" style="edgeLabel;html=1;align=center;verticalAlign=middle;resizable=0;points=[];" parent="69" vertex="1" connectable="0">
                    <mxGeometry x="0.2432" y="-3" relative="1" as="geometry">
                        <mxPoint x="17" y="19" as="offset"/>
                    </mxGeometry>
                </mxCell>
                <mxCell id="71" value="" style="endArrow=none;html=1;endFill=0;startArrow=block;startFill=1;dashed=1;" parent="1" edge="1">
                    <mxGeometry width="50" height="50" relative="1" as="geometry">
                        <mxPoint x="184" y="710" as="sourcePoint"/>
                        <mxPoint x="380" y="710" as="targetPoint"/>
                    </mxGeometry>
                </mxCell>
                <mxCell id="72" value="Register successful" style="edgeLabel;html=1;align=center;verticalAlign=middle;resizable=0;points=[];" parent="71" vertex="1" connectable="0">
                    <mxGeometry x="0.2432" y="-3" relative="1" as="geometry">
                        <mxPoint x="-23" y="-16" as="offset"/>
                    </mxGeometry>
                </mxCell>
                <mxCell id="91" value="loop" style="shape=umlFrame;whiteSpace=wrap;html=1;width=40;height=30;boundedLbl=1;verticalAlign=middle;align=left;spacingLeft=5;" parent="1" vertex="1">
                    <mxGeometry x="130" y="840" width="400" height="220" as="geometry"/>
                </mxCell>
                <mxCell id="73" value="" style="endArrow=none;html=1;endFill=0;startArrow=block;startFill=1;dashed=1;" parent="1" edge="1">
                    <mxGeometry width="50" height="50" relative="1" as="geometry">
                        <mxPoint x="184" y="780" as="sourcePoint"/>
                        <mxPoint x="380" y="780" as="targetPoint"/>
                    </mxGeometry>
                </mxCell>
                <mxCell id="74" value="Register fail" style="edgeLabel;html=1;align=center;verticalAlign=middle;resizable=0;points=[];" parent="73" vertex="1" connectable="0">
                    <mxGeometry x="0.2432" y="-3" relative="1" as="geometry">
                        <mxPoint x="-23" y="-16" as="offset"/>
                    </mxGeometry>
                </mxCell>
                <mxCell id="90" value="" style="endArrow=none;html=1;endFill=0;dashed=1;strokeWidth=1;dashPattern=12 12;" parent="1" edge="1">
                    <mxGeometry width="50" height="50" relative="1" as="geometry">
                        <mxPoint x="130.0003448275861" y="750" as="sourcePoint"/>
                        <mxPoint x="530" y="750" as="targetPoint"/>
                    </mxGeometry>
                </mxCell>
                <mxCell id="92" value="[Authentical scuccess]" style="text;html=1;strokeColor=none;fillColor=none;align=center;verticalAlign=middle;whiteSpace=wrap;rounded=0;" parent="1" vertex="1">
                    <mxGeometry x="274" y="190" width="76" height="30" as="geometry"/>
                </mxCell>
                <mxCell id="93" value="[Authentical scuccess]" style="text;html=1;strokeColor=none;fillColor=none;align=center;verticalAlign=middle;whiteSpace=wrap;rounded=0;" parent="1" vertex="1">
                    <mxGeometry x="190" y="540" width="120" height="30" as="geometry"/>
                </mxCell>
                <mxCell id="94" value="Payment Service Provider" style="shape=umlLifeline;perimeter=lifelinePerimeter;whiteSpace=wrap;html=1;container=1;collapsible=0;recursiveResize=0;outlineConnect=0;" parent="1" vertex="1">
                    <mxGeometry x="-69" y="50" width="100" height="1410" as="geometry"/>
                </mxCell>
                <mxCell id="95" value="" style="endArrow=none;html=1;endFill=0;startArrow=block;startFill=1;" parent="1" edge="1">
                    <mxGeometry width="50" height="50" relative="1" as="geometry">
                        <mxPoint x="-20" y="1141" as="sourcePoint"/>
                        <mxPoint x="184.99999999999977" y="1141" as="targetPoint"/>
                    </mxGeometry>
                </mxCell>
                <mxCell id="96" value="Make Payment()" style="edgeLabel;html=1;align=center;verticalAlign=middle;resizable=0;points=[];" parent="95" vertex="1" connectable="0">
                    <mxGeometry x="0.2432" y="-3" relative="1" as="geometry">
                        <mxPoint x="-23" y="-16" as="offset"/>
                    </mxGeometry>
                </mxCell>
                <mxCell id="98" value="alt" style="shape=umlFrame;whiteSpace=wrap;html=1;width=40;height=30;boundedLbl=1;verticalAlign=middle;align=left;spacingLeft=5;" parent="1" vertex="1">
                    <mxGeometry x="-150" y="1101" width="400" height="270" as="geometry"/>
                </mxCell>
                <mxCell id="99" value="" style="html=1;points=[];perimeter=orthogonalPerimeter;" parent="1" vertex="1">
                    <mxGeometry x="-24" y="1141" width="10" height="50" as="geometry"/>
                </mxCell>
                <mxCell id="100" value="" style="endArrow=classic;html=1;endFill=1;startArrow=none;startFill=0;" parent="1" edge="1">
                    <mxGeometry width="50" height="50" relative="1" as="geometry">
                        <mxPoint x="-20" y="1221" as="sourcePoint"/>
                        <mxPoint x="669.5" y="1221" as="targetPoint"/>
                    </mxGeometry>
                </mxCell>
                <mxCell id="101" value="Pay Seller()" style="edgeLabel;html=1;align=center;verticalAlign=middle;resizable=0;points=[];" parent="100" vertex="1" connectable="0">
                    <mxGeometry x="0.2432" y="-3" relative="1" as="geometry">
                        <mxPoint x="-23" y="-16" as="offset"/>
                    </mxGeometry>
                </mxCell>
                <mxCell id="102" value="" style="endArrow=block;html=1;endFill=1;startArrow=none;startFill=0;dashed=1;" parent="1" edge="1">
                    <mxGeometry width="50" height="50" relative="1" as="geometry">
                        <mxPoint x="-18" y="1271" as="sourcePoint"/>
                        <mxPoint x="186.99999999999977" y="1271" as="targetPoint"/>
                    </mxGeometry>
                </mxCell>
                <mxCell id="103" value="Payment sucess" style="edgeLabel;html=1;align=center;verticalAlign=middle;resizable=0;points=[];" parent="102" vertex="1" connectable="0">
                    <mxGeometry x="0.2432" y="-3" relative="1" as="geometry">
                        <mxPoint x="-23" y="-16" as="offset"/>
                    </mxGeometry>
                </mxCell>
                <mxCell id="104" value="" style="endArrow=block;html=1;endFill=1;startArrow=none;startFill=0;dashed=1;" parent="1" edge="1">
                    <mxGeometry width="50" height="50" relative="1" as="geometry">
                        <mxPoint x="-21" y="1341" as="sourcePoint"/>
                        <mxPoint x="183.99999999999955" y="1341" as="targetPoint"/>
                    </mxGeometry>
                </mxCell>
                <mxCell id="105" value="Payment error" style="edgeLabel;html=1;align=center;verticalAlign=middle;resizable=0;points=[];" parent="104" vertex="1" connectable="0">
                    <mxGeometry x="0.2432" y="-3" relative="1" as="geometry">
                        <mxPoint x="-23" y="-16" as="offset"/>
                    </mxGeometry>
                </mxCell>
                <mxCell id="106" value="[Payment scuccess]" style="text;html=1;strokeColor=none;fillColor=none;align=center;verticalAlign=middle;whiteSpace=wrap;rounded=0;" parent="1" vertex="1">
                    <mxGeometry x="-100" y="1101" width="120" height="30" as="geometry"/>
                </mxCell>
                <mxCell id="107" value="" style="endArrow=none;html=1;endFill=0;dashed=1;strokeWidth=1;dashPattern=12 12;" parent="1" edge="1">
                    <mxGeometry width="50" height="50" relative="1" as="geometry">
                        <mxPoint x="-149.9996551724139" y="1311" as="sourcePoint"/>
                        <mxPoint x="250" y="1311" as="targetPoint"/>
                    </mxGeometry>
                </mxCell>
            </root>
        </mxGraphModel>
    </diagram>
</mxfile>